<svg width="17" height="14" viewBox="0 0 17 14" fill="none" xmlns="http://www.w3.org/2000/svg">
<path d="M7.95175 2.37161L8.28545 2.87804L8.61958 2.3719C9.87279 0.473542 11.6248 0.0948945 13.0462 0.63139C14.4907 1.17655 15.665 2.69253 15.665 4.74398C15.665 5.45358 15.2807 6.32286 14.6163 7.27687C13.9605 8.21854 13.0716 9.18711 12.1499 10.0844C11.2299 10.98 10.2871 11.795 9.52938 12.4306C9.25721 12.6589 9.01029 12.863 8.79614 13.0399C8.71179 13.1096 8.63252 13.1751 8.5588 13.2362C8.45809 13.3197 8.3651 13.3972 8.28328 13.4666C8.19704 13.3955 8.0988 13.3165 7.99267 13.2317C7.88613 13.1465 7.76944 13.0539 7.64308 12.9536C7.44515 12.7965 7.2235 12.6206 6.98005 12.4251C6.18775 11.7891 5.19892 10.9737 4.23281 10.0777C3.26479 9.17999 2.33027 8.21105 1.64059 7.26916C0.940966 6.31368 0.539404 5.44728 0.539404 4.74398C0.539404 2.69125 1.79134 1.16897 3.33598 0.621516C4.86379 0.0800294 6.70682 0.482269 7.95175 2.37161Z" stroke="#00C65E" stroke-width="0.8"/>
</svg>
