<svg width="18" height="18" viewBox="0 0 18 18" fill="none" xmlns="http://www.w3.org/2000/svg">
<path fill-rule="evenodd" clip-rule="evenodd" d="M0.490576 0.298828C0.269662 0.298828 0.0905762 0.477914 0.0905762 0.698828C0.0905762 0.919742 0.269662 1.09883 0.490576 1.09883H1.00292C1.72081 1.09883 2.35081 1.57698 2.54394 2.26839L4.78617 10.2959C4.79082 10.3125 4.79646 10.3286 4.803 10.3442L5.05402 11.27C5.21942 11.8801 5.77313 12.3037 6.40524 12.3037H14.0702C14.7023 12.3037 15.256 11.8801 15.4214 11.27L17.009 5.41395C17.2503 4.52383 16.58 3.64762 15.6578 3.64762H3.7598L3.31445 2.05318C3.02476 1.01605 2.07975 0.298828 1.00292 0.298828H0.490576ZM5.82615 11.0607L4.03327 4.44762H15.6578C16.053 4.44762 16.3403 4.82314 16.2369 5.20461L14.6493 11.0607C14.5784 11.3222 14.3411 11.5037 14.0702 11.5037H6.40524C6.13433 11.5037 5.89703 11.3222 5.82615 11.0607Z" fill="#363A45"/>
<path d="M8.76663 15.4497C8.76663 16.2357 8.12881 16.8734 7.34125 16.8734C6.55369 16.8734 5.91587 16.2357 5.91587 15.4497C5.91587 14.6637 6.55369 14.026 7.34125 14.026C8.12881 14.026 8.76663 14.6637 8.76663 15.4497Z" stroke="#363A45" stroke-width="0.8"/>
<path d="M14.5591 15.4497C14.5591 16.2357 13.9213 16.8734 13.1337 16.8734C12.3462 16.8734 11.7083 16.2357 11.7083 15.4497C11.7083 14.6637 12.3462 14.026 13.1337 14.026C13.9213 14.026 14.5591 14.6637 14.5591 15.4497Z" stroke="#363A45" stroke-width="0.8"/>
</svg>
