<svg width="11" height="11" viewBox="0 0 11 11" fill="none" xmlns="http://www.w3.org/2000/svg">
<path d="M4.68984 0.758498C4.90422 0.111751 5.83535 0.111751 6.04901 0.758498L6.81364 3.07022C6.86035 3.21101 6.95116 3.33368 7.07309 3.4207C7.19502 3.50772 7.34182 3.55464 7.49251 3.55475H9.96647C10.6589 3.55475 10.9462 4.42551 10.3867 4.82578L8.38577 6.2541C8.26359 6.3412 8.17262 6.46407 8.12589 6.60511C8.07916 6.74614 8.07908 6.8981 8.12565 7.03919L8.89028 9.35091C9.10466 9.99765 8.35075 10.5363 7.78979 10.136L5.7889 8.70767C5.66685 8.62059 5.51989 8.5737 5.36907 8.5737C5.21824 8.5737 5.07129 8.62059 4.94924 8.70767L2.94835 10.136C2.3881 10.5363 1.63491 9.99765 1.84857 9.35091L2.6132 7.03919C2.65977 6.8981 2.65969 6.74614 2.61296 6.60511C2.56623 6.46407 2.47526 6.3412 2.35308 6.2541L0.35291 4.82648C-0.206624 4.42621 0.0813608 3.55545 0.773097 3.55545H3.24634C3.39715 3.55549 3.54412 3.50864 3.66618 3.42161C3.78825 3.33458 3.87917 3.21182 3.92593 3.07092L4.69055 0.759201L4.68984 0.758498Z" fill="#363A45"/>
</svg>
